%TF.GenerationSoftware,KiCad,Pcbnew,9.0.2*%
%TF.CreationDate,2026-06-09T13:40:55+02:00*%
%TF.ProjectId,Poub,506f7562-2e6b-4696-9361-645f70636258,rev?*%
%TF.SameCoordinates,Original*%
%TF.FileFunction,Copper,L3,Inr*%
%TF.FilePolarity,Positive*%
%FSLAX46Y46*%
G04 Gerber Fmt 4.6, Leading zero omitted, Abs format (unit mm)*
G04 Created by KiCad (PCBNEW 9.0.2) date 2026-06-09 13:40:55*
%MOMM*%
%LPD*%
G01*
G04 APERTURE LIST*
G04 Aperture macros list*
%AMRoundRect*
0 Rectangle with rounded corners*
0 $1 Rounding radius*
0 $2 $3 $4 $5 $6 $7 $8 $9 X,Y pos of 4 corners*
0 Add a 4 corners polygon primitive as box body*
4,1,4,$2,$3,$4,$5,$6,$7,$8,$9,$2,$3,0*
0 Add four circle primitives for the rounded corners*
1,1,$1+$1,$2,$3*
1,1,$1+$1,$4,$5*
1,1,$1+$1,$6,$7*
1,1,$1+$1,$8,$9*
0 Add four rect primitives between the rounded corners*
20,1,$1+$1,$2,$3,$4,$5,0*
20,1,$1+$1,$4,$5,$6,$7,0*
20,1,$1+$1,$6,$7,$8,$9,0*
20,1,$1+$1,$8,$9,$2,$3,0*%
G04 Aperture macros list end*
%TA.AperFunction,ComponentPad*%
%ADD10RoundRect,0.250000X-0.650000X-0.650000X0.650000X-0.650000X0.650000X0.650000X-0.650000X0.650000X0*%
%TD*%
%TA.AperFunction,ComponentPad*%
%ADD11C,1.800000*%
%TD*%
%TA.AperFunction,ComponentPad*%
%ADD12RoundRect,0.250000X-0.750000X-0.750000X0.750000X-0.750000X0.750000X0.750000X-0.750000X0.750000X0*%
%TD*%
%TA.AperFunction,ComponentPad*%
%ADD13C,2.000000*%
%TD*%
%TA.AperFunction,ComponentPad*%
%ADD14C,5.600000*%
%TD*%
%TA.AperFunction,ComponentPad*%
%ADD15RoundRect,0.250000X-0.750000X0.750000X-0.750000X-0.750000X0.750000X-0.750000X0.750000X0.750000X0*%
%TD*%
%TA.AperFunction,ViaPad*%
%ADD16C,0.600000*%
%TD*%
G04 APERTURE END LIST*
D10*
%TO.N,Net-(J3-Pin_1)*%
%TO.C,U1*%
X87130000Y-65650000D03*
D11*
%TO.N,GND*%
X87130000Y-68190000D03*
%TO.N,5V_local*%
X87130000Y-70730000D03*
%TD*%
D12*
%TO.N,Net-(J1-Pin_1)*%
%TO.C,J1*%
X87750000Y-43967500D03*
D13*
%TO.N,GND*%
X90290000Y-43967500D03*
%TO.N,Net-(J1-Pin_3)*%
X92830000Y-43967500D03*
%TO.N,Net-(J1-Pin_4)*%
X95370000Y-43967500D03*
%TD*%
D14*
%TO.N,GND*%
%TO.C,H2*%
X129075000Y-45000000D03*
%TD*%
%TO.N,GND*%
%TO.C,H3*%
X129075000Y-80625000D03*
%TD*%
%TO.N,GND*%
%TO.C,H1*%
X76500000Y-45000000D03*
%TD*%
%TO.N,GND*%
%TO.C,H4*%
X76500000Y-80625000D03*
%TD*%
D15*
%TO.N,Net-(J3-Pin_1)*%
%TO.C,J3*%
X78400000Y-65660000D03*
D13*
%TO.N,GND*%
X78400000Y-68200000D03*
%TD*%
D12*
%TO.N,Net-(J1-Pin_1)*%
%TO.C,J2*%
X111420000Y-44000000D03*
D13*
%TO.N,GND*%
X113960000Y-44000000D03*
%TO.N,Net-(J2-Pin_3)*%
X116500000Y-44000000D03*
%TO.N,Net-(J2-Pin_4)*%
X119040000Y-44000000D03*
%TD*%
D16*
%TO.N,3.3V*%
X111250000Y-80250000D03*
X112500000Y-70250000D03*
%TO.N,GND*%
X99760000Y-86170000D03*
X98760000Y-86170000D03*
X97760000Y-86170000D03*
X97760000Y-89170000D03*
X100760000Y-89170000D03*
X100760000Y-86170000D03*
X105760000Y-86170000D03*
X105760000Y-89170000D03*
X107760000Y-89170000D03*
X109760000Y-86170000D03*
X109760000Y-89170000D03*
X107760000Y-86170000D03*
%TO.N,5V*%
X110800000Y-52400000D03*
X125000000Y-58425000D03*
%TO.N,GND*%
X94000000Y-57500000D03*
X108630781Y-63630781D03*
X100250000Y-54080000D03*
X89500000Y-55000000D03*
X108000000Y-65000000D03*
X97012500Y-76175000D03*
X107500000Y-67500000D03*
%TD*%
M02*
