%TF.GenerationSoftware,KiCad,Pcbnew,9.0.2*%
%TF.CreationDate,2026-06-09T13:40:55+02:00*%
%TF.ProjectId,Poub,506f7562-2e6b-4696-9361-645f70636258,rev?*%
%TF.SameCoordinates,Original*%
%TF.FileFunction,Paste,Top*%
%TF.FilePolarity,Positive*%
%FSLAX46Y46*%
G04 Gerber Fmt 4.6, Leading zero omitted, Abs format (unit mm)*
G04 Created by KiCad (PCBNEW 9.0.2) date 2026-06-09 13:40:55*
%MOMM*%
%LPD*%
G01*
G04 APERTURE LIST*
G04 Aperture macros list*
%AMRoundRect*
0 Rectangle with rounded corners*
0 $1 Rounding radius*
0 $2 $3 $4 $5 $6 $7 $8 $9 X,Y pos of 4 corners*
0 Add a 4 corners polygon primitive as box body*
4,1,4,$2,$3,$4,$5,$6,$7,$8,$9,$2,$3,0*
0 Add four circle primitives for the rounded corners*
1,1,$1+$1,$2,$3*
1,1,$1+$1,$4,$5*
1,1,$1+$1,$6,$7*
1,1,$1+$1,$8,$9*
0 Add four rect primitives between the rounded corners*
20,1,$1+$1,$2,$3,$4,$5,0*
20,1,$1+$1,$4,$5,$6,$7,0*
20,1,$1+$1,$6,$7,$8,$9,0*
20,1,$1+$1,$8,$9,$2,$3,0*%
G04 Aperture macros list end*
%ADD10R,3.000000X5.000000*%
%ADD11R,0.700000X2.000000*%
%ADD12RoundRect,0.150000X0.150000X-0.512500X0.150000X0.512500X-0.150000X0.512500X-0.150000X-0.512500X0*%
%ADD13RoundRect,0.250000X-0.350000X-0.450000X0.350000X-0.450000X0.350000X0.450000X-0.350000X0.450000X0*%
%ADD14R,1.600000X2.250000*%
%ADD15RoundRect,0.250000X-0.337500X-0.475000X0.337500X-0.475000X0.337500X0.475000X-0.337500X0.475000X0*%
%ADD16RoundRect,0.250000X0.350000X0.450000X-0.350000X0.450000X-0.350000X-0.450000X0.350000X-0.450000X0*%
%ADD17RoundRect,0.150000X-0.825000X-0.150000X0.825000X-0.150000X0.825000X0.150000X-0.825000X0.150000X0*%
%ADD18RoundRect,0.250000X0.337500X0.475000X-0.337500X0.475000X-0.337500X-0.475000X0.337500X-0.475000X0*%
G04 APERTURE END LIST*
D10*
%TO.C,J4*%
X114750000Y-87850000D03*
X89750000Y-87850000D03*
D11*
X111750000Y-91450000D03*
X110750000Y-91450000D03*
X109750000Y-91450000D03*
X108750000Y-91450000D03*
X107750000Y-91450000D03*
X106750000Y-91450000D03*
X105750000Y-91450000D03*
X102750000Y-91450000D03*
X101750000Y-91450000D03*
X100750000Y-91450000D03*
X99750000Y-91450000D03*
X98750000Y-91450000D03*
X97750000Y-91450000D03*
X96750000Y-91450000D03*
X95750000Y-91450000D03*
X94750000Y-91450000D03*
X93750000Y-91450000D03*
X92750000Y-91450000D03*
X111750000Y-84250000D03*
X110750000Y-84250000D03*
X109750000Y-84250000D03*
X108750000Y-84250000D03*
X107750000Y-84250000D03*
X106750000Y-84250000D03*
X105750000Y-84250000D03*
X102750000Y-84250000D03*
X101750000Y-84250000D03*
X100750000Y-84250000D03*
X99750000Y-84250000D03*
X98750000Y-84250000D03*
X97750000Y-84250000D03*
X96750000Y-84250000D03*
X95750000Y-84250000D03*
X94750000Y-84250000D03*
X93750000Y-84250000D03*
X92750000Y-84250000D03*
%TD*%
D12*
%TO.C,Q1*%
X110800000Y-56787500D03*
X112700000Y-56787500D03*
X111750000Y-54512500D03*
%TD*%
D13*
%TO.C,R5*%
X97575000Y-65545000D03*
X99575000Y-65545000D03*
%TD*%
%TO.C,R2*%
X100250000Y-49650000D03*
X102250000Y-49650000D03*
%TD*%
D14*
%TO.C,D1*%
X129150000Y-62700000D03*
X129150000Y-66800000D03*
%TD*%
D15*
%TO.C,C2*%
X91925000Y-55000000D03*
X94000000Y-55000000D03*
%TD*%
D16*
%TO.C,R6*%
X116500000Y-63500000D03*
X114500000Y-63500000D03*
%TD*%
D13*
%TO.C,R4*%
X97575000Y-62595000D03*
X99575000Y-62595000D03*
%TD*%
%TO.C,R3*%
X100250000Y-52450000D03*
X102250000Y-52450000D03*
%TD*%
D15*
%TO.C,C1*%
X97012500Y-74175000D03*
X99087500Y-74175000D03*
%TD*%
D14*
%TO.C,D2*%
X125000000Y-62600000D03*
X125000000Y-66700000D03*
%TD*%
D17*
%TO.C,U4*%
X105525000Y-62555000D03*
X105525000Y-63825000D03*
X105525000Y-65095000D03*
X105525000Y-66365000D03*
X105525000Y-67635000D03*
X105525000Y-68905000D03*
X105525000Y-70175000D03*
X105525000Y-71445000D03*
X110475000Y-71445000D03*
X110475000Y-70175000D03*
X110475000Y-68905000D03*
X110475000Y-67635000D03*
X110475000Y-66365000D03*
X110475000Y-65095000D03*
X110475000Y-63825000D03*
X110475000Y-62555000D03*
%TD*%
D15*
%TO.C,C5*%
X115987500Y-72000000D03*
X118062500Y-72000000D03*
%TD*%
%TO.C,C3*%
X85425000Y-55000000D03*
X87500000Y-55000000D03*
%TD*%
D16*
%TO.C,R7*%
X121000000Y-63500000D03*
X119000000Y-63500000D03*
%TD*%
D13*
%TO.C,R1*%
X100250000Y-46850000D03*
X102250000Y-46850000D03*
%TD*%
D18*
%TO.C,C4*%
X101537500Y-69500000D03*
X99462500Y-69500000D03*
%TD*%
M02*
