M48
; DRILL file {KiCad 9.0.2} date 2026-06-09T13:40:57+0200
; FORMAT={-:-/ absolute / metric / decimal}
; #@! TF.CreationDate,2026-06-09T13:40:57+02:00
; #@! TF.GenerationSoftware,Kicad,Pcbnew,9.0.2
; #@! TF.FileFunction,Plated,1,4,PTH
FMAT,2
METRIC
; #@! TA.AperFunction,Plated,PTH,ViaDrill
T1C0.300
; #@! TA.AperFunction,Plated,PTH,ComponentDrill
T2C1.200
; #@! TA.AperFunction,Plated,PTH,ComponentDrill
T3C3.200
%
G90
G05
T1
X89.5Y-55.0
X94.0Y-57.5
X97.012Y-76.175
X97.76Y-86.17
X97.76Y-89.17
X98.76Y-86.17
X99.76Y-86.17
X100.25Y-54.08
X100.76Y-86.17
X100.76Y-89.17
X105.76Y-86.17
X105.76Y-89.17
X107.5Y-67.5
X107.76Y-86.17
X107.76Y-89.17
X108.0Y-65.0
X108.631Y-63.631
X109.76Y-86.17
X109.76Y-89.17
X110.8Y-52.4
X111.25Y-80.25
X112.5Y-70.25
X125.0Y-58.425
T2
X78.4Y-65.66
X78.4Y-68.2
X87.13Y-65.65
X87.13Y-68.19
X87.13Y-70.73
X87.75Y-43.968
X90.29Y-43.968
X92.83Y-43.968
X95.37Y-43.968
X111.42Y-44.0
X113.96Y-44.0
X116.5Y-44.0
X119.04Y-44.0
T3
X76.5Y-45.0
X76.5Y-80.625
X129.075Y-45.0
X129.075Y-80.625
M30
