%TF.GenerationSoftware,KiCad,Pcbnew,9.0.2*%
%TF.CreationDate,2026-06-09T13:40:55+02:00*%
%TF.ProjectId,Poub,506f7562-2e6b-4696-9361-645f70636258,rev?*%
%TF.SameCoordinates,Original*%
%TF.FileFunction,Copper,L1,Top*%
%TF.FilePolarity,Positive*%
%FSLAX46Y46*%
G04 Gerber Fmt 4.6, Leading zero omitted, Abs format (unit mm)*
G04 Created by KiCad (PCBNEW 9.0.2) date 2026-06-09 13:40:55*
%MOMM*%
%LPD*%
G01*
G04 APERTURE LIST*
G04 Aperture macros list*
%AMRoundRect*
0 Rectangle with rounded corners*
0 $1 Rounding radius*
0 $2 $3 $4 $5 $6 $7 $8 $9 X,Y pos of 4 corners*
0 Add a 4 corners polygon primitive as box body*
4,1,4,$2,$3,$4,$5,$6,$7,$8,$9,$2,$3,0*
0 Add four circle primitives for the rounded corners*
1,1,$1+$1,$2,$3*
1,1,$1+$1,$4,$5*
1,1,$1+$1,$6,$7*
1,1,$1+$1,$8,$9*
0 Add four rect primitives between the rounded corners*
20,1,$1+$1,$2,$3,$4,$5,0*
20,1,$1+$1,$4,$5,$6,$7,0*
20,1,$1+$1,$6,$7,$8,$9,0*
20,1,$1+$1,$8,$9,$2,$3,0*%
G04 Aperture macros list end*
%TA.AperFunction,SMDPad,CuDef*%
%ADD10R,3.000000X5.000000*%
%TD*%
%TA.AperFunction,SMDPad,CuDef*%
%ADD11R,0.700000X2.000000*%
%TD*%
%TA.AperFunction,ComponentPad*%
%ADD12RoundRect,0.250000X-0.650000X-0.650000X0.650000X-0.650000X0.650000X0.650000X-0.650000X0.650000X0*%
%TD*%
%TA.AperFunction,ComponentPad*%
%ADD13C,1.800000*%
%TD*%
%TA.AperFunction,SMDPad,CuDef*%
%ADD14RoundRect,0.150000X0.150000X-0.512500X0.150000X0.512500X-0.150000X0.512500X-0.150000X-0.512500X0*%
%TD*%
%TA.AperFunction,SMDPad,CuDef*%
%ADD15RoundRect,0.250000X-0.350000X-0.450000X0.350000X-0.450000X0.350000X0.450000X-0.350000X0.450000X0*%
%TD*%
%TA.AperFunction,ComponentPad*%
%ADD16RoundRect,0.250000X-0.750000X-0.750000X0.750000X-0.750000X0.750000X0.750000X-0.750000X0.750000X0*%
%TD*%
%TA.AperFunction,ComponentPad*%
%ADD17C,2.000000*%
%TD*%
%TA.AperFunction,ComponentPad*%
%ADD18C,5.600000*%
%TD*%
%TA.AperFunction,SMDPad,CuDef*%
%ADD19R,1.600000X2.250000*%
%TD*%
%TA.AperFunction,SMDPad,CuDef*%
%ADD20RoundRect,0.250000X-0.337500X-0.475000X0.337500X-0.475000X0.337500X0.475000X-0.337500X0.475000X0*%
%TD*%
%TA.AperFunction,SMDPad,CuDef*%
%ADD21RoundRect,0.250000X0.350000X0.450000X-0.350000X0.450000X-0.350000X-0.450000X0.350000X-0.450000X0*%
%TD*%
%TA.AperFunction,ComponentPad*%
%ADD22RoundRect,0.250000X-0.750000X0.750000X-0.750000X-0.750000X0.750000X-0.750000X0.750000X0.750000X0*%
%TD*%
%TA.AperFunction,SMDPad,CuDef*%
%ADD23RoundRect,0.150000X-0.825000X-0.150000X0.825000X-0.150000X0.825000X0.150000X-0.825000X0.150000X0*%
%TD*%
%TA.AperFunction,SMDPad,CuDef*%
%ADD24RoundRect,0.250000X0.337500X0.475000X-0.337500X0.475000X-0.337500X-0.475000X0.337500X-0.475000X0*%
%TD*%
%TA.AperFunction,ViaPad*%
%ADD25C,0.600000*%
%TD*%
%TA.AperFunction,Conductor*%
%ADD26C,0.200000*%
%TD*%
G04 APERTURE END LIST*
D10*
%TO.P,J4,MP2,MP2*%
%TO.N,unconnected-(J4-PadMP2)*%
X114750000Y-87850000D03*
%TO.P,J4,MP1,MP1*%
%TO.N,unconnected-(J4-PadMP1)*%
X89750000Y-87850000D03*
D11*
%TO.P,J4,B18,B18*%
%TO.N,5V_local*%
X111750000Y-91450000D03*
%TO.P,J4,B17,B17*%
%TO.N,3.3V*%
X110750000Y-91450000D03*
%TO.P,J4,B16,B16*%
%TO.N,GND*%
X109750000Y-91450000D03*
%TO.P,J4,B15,B15*%
%TO.N,VBUS*%
X108750000Y-91450000D03*
%TO.P,J4,B14,B14*%
%TO.N,GND*%
X107750000Y-91450000D03*
%TO.P,J4,B13,B13*%
%TO.N,unconnected-(J4-PadB13)*%
X106750000Y-91450000D03*
%TO.P,J4,B12,B12*%
%TO.N,GND*%
X105750000Y-91450000D03*
%TO.P,J4,B11,B11*%
%TO.N,unconnected-(J4-PadB11)*%
X102750000Y-91450000D03*
%TO.P,J4,B10,B10*%
%TO.N,unconnected-(J4-PadB10)*%
X101750000Y-91450000D03*
%TO.P,J4,B9,B9*%
%TO.N,GND*%
X100750000Y-91450000D03*
%TO.P,J4,B8,B8*%
%TO.N,unconnected-(J4-PadB8)*%
X99750000Y-91450000D03*
%TO.P,J4,B7,B7*%
%TO.N,unconnected-(J4-PadB7)*%
X98750000Y-91450000D03*
%TO.P,J4,B6,B6*%
%TO.N,GND*%
X97750000Y-91450000D03*
%TO.P,J4,B5,B5*%
%TO.N,unconnected-(J4-PadB5)*%
X96750000Y-91450000D03*
%TO.P,J4,B4,B4*%
%TO.N,unconnected-(J4-PadB4)*%
X95750000Y-91450000D03*
%TO.P,J4,B3,B3*%
%TO.N,unconnected-(J4-PadB3)*%
X94750000Y-91450000D03*
%TO.P,J4,B2,B2*%
%TO.N,unconnected-(J4-PadB2)*%
X93750000Y-91450000D03*
%TO.P,J4,B1,B1*%
%TO.N,unconnected-(J4-PadB1)*%
X92750000Y-91450000D03*
%TO.P,J4,A18,A18*%
%TO.N,5V_local*%
X111750000Y-84250000D03*
%TO.P,J4,A17,A17*%
%TO.N,3.3V*%
X110750000Y-84250000D03*
%TO.P,J4,A16,A16*%
%TO.N,GND*%
X109750000Y-84250000D03*
%TO.P,J4,A15,A15*%
%TO.N,VBUS*%
X108750000Y-84250000D03*
%TO.P,J4,A14,A14*%
%TO.N,GND*%
X107750000Y-84250000D03*
%TO.P,J4,A13,A13*%
%TO.N,unconnected-(J4-PadA13)*%
X106750000Y-84250000D03*
%TO.P,J4,A12,A12*%
%TO.N,GND*%
X105750000Y-84250000D03*
%TO.P,J4,A11,A11*%
%TO.N,unconnected-(J4-PadA11)*%
X102750000Y-84250000D03*
%TO.P,J4,A10,A10*%
%TO.N,unconnected-(J4-PadA10)*%
X101750000Y-84250000D03*
%TO.P,J4,A9,A9*%
%TO.N,GND*%
X100750000Y-84250000D03*
%TO.P,J4,A8,A8*%
X99750000Y-84250000D03*
%TO.P,J4,A7,A7*%
X98750000Y-84250000D03*
%TO.P,J4,A6,A6*%
X97750000Y-84250000D03*
%TO.P,J4,A5,A5*%
%TO.N,unconnected-(J4-PadA5)*%
X96750000Y-84250000D03*
%TO.P,J4,A4,A4*%
%TO.N,unconnected-(J4-PadA4)*%
X95750000Y-84250000D03*
%TO.P,J4,A3,A3*%
%TO.N,unconnected-(J4-PadA3)*%
X94750000Y-84250000D03*
%TO.P,J4,A2,A2*%
%TO.N,SCK*%
X93750000Y-84250000D03*
%TO.P,J4,A1,A1*%
%TO.N,DOUT*%
X92750000Y-84250000D03*
%TD*%
D12*
%TO.P,U1,1,Vin*%
%TO.N,Net-(J3-Pin_1)*%
X87130000Y-65650000D03*
D13*
%TO.P,U1,2,GND*%
%TO.N,GND*%
X87130000Y-68190000D03*
%TO.P,U1,3,Vout*%
%TO.N,5V_local*%
X87130000Y-70730000D03*
%TD*%
D14*
%TO.P,Q1,1,E*%
%TO.N,5V*%
X110800000Y-56787500D03*
%TO.P,Q1,2,B*%
%TO.N,Net-(Q1-B)*%
X112700000Y-56787500D03*
%TO.P,Q1,3,C*%
%TO.N,Net-(Q1-C)*%
X111750000Y-54512500D03*
%TD*%
D15*
%TO.P,R5,1*%
%TO.N,Net-(J1-Pin_4)*%
X97575000Y-65545000D03*
%TO.P,R5,2*%
%TO.N,Net-(U4-INA+)*%
X99575000Y-65545000D03*
%TD*%
D16*
%TO.P,J1,1,Pin_1*%
%TO.N,Net-(J1-Pin_1)*%
X87750000Y-43967500D03*
D17*
%TO.P,J1,2,Pin_2*%
%TO.N,GND*%
X90290000Y-43967500D03*
%TO.P,J1,3,Pin_3*%
%TO.N,Net-(J1-Pin_3)*%
X92830000Y-43967500D03*
%TO.P,J1,4,Pin_4*%
%TO.N,Net-(J1-Pin_4)*%
X95370000Y-43967500D03*
%TD*%
D18*
%TO.P,H2,1,1*%
%TO.N,GND*%
X129075000Y-45000000D03*
%TD*%
%TO.P,H3,1,1*%
%TO.N,GND*%
X129075000Y-80625000D03*
%TD*%
D15*
%TO.P,R2,1*%
%TO.N,Net-(U4-VFB)*%
X100250000Y-49650000D03*
%TO.P,R2,2*%
%TO.N,Net-(Q1-C)*%
X102250000Y-49650000D03*
%TD*%
D19*
%TO.P,D1,1,K*%
%TO.N,5V*%
X129150000Y-62700000D03*
%TO.P,D1,2,A*%
%TO.N,5V_local*%
X129150000Y-66800000D03*
%TD*%
D18*
%TO.P,H1,1,1*%
%TO.N,GND*%
X76500000Y-45000000D03*
%TD*%
D20*
%TO.P,C2,1*%
%TO.N,Net-(J1-Pin_1)*%
X91925000Y-55000000D03*
%TO.P,C2,2*%
%TO.N,GND*%
X94000000Y-55000000D03*
%TD*%
D18*
%TO.P,H4,1,1*%
%TO.N,GND*%
X76500000Y-80625000D03*
%TD*%
D21*
%TO.P,R6,1*%
%TO.N,Net-(J2-Pin_3)*%
X116500000Y-63500000D03*
%TO.P,R6,2*%
%TO.N,Net-(U4-INB-)*%
X114500000Y-63500000D03*
%TD*%
D22*
%TO.P,J3,1,Pin_1*%
%TO.N,Net-(J3-Pin_1)*%
X78400000Y-65660000D03*
D17*
%TO.P,J3,2,Pin_2*%
%TO.N,GND*%
X78400000Y-68200000D03*
%TD*%
D15*
%TO.P,R4,1*%
%TO.N,Net-(J1-Pin_3)*%
X97575000Y-62595000D03*
%TO.P,R4,2*%
%TO.N,Net-(U4-INA-)*%
X99575000Y-62595000D03*
%TD*%
%TO.P,R3,1*%
%TO.N,GND*%
X100250000Y-52450000D03*
%TO.P,R3,2*%
%TO.N,Net-(U4-VFB)*%
X102250000Y-52450000D03*
%TD*%
D20*
%TO.P,C1,1*%
%TO.N,GND*%
X97012500Y-74175000D03*
%TO.P,C1,2*%
%TO.N,Net-(U4-VBG)*%
X99087500Y-74175000D03*
%TD*%
D19*
%TO.P,D2,1,K*%
%TO.N,5V*%
X125000000Y-62600000D03*
%TO.P,D2,2,A*%
%TO.N,VBUS*%
X125000000Y-66700000D03*
%TD*%
D16*
%TO.P,J2,1,Pin_1*%
%TO.N,Net-(J1-Pin_1)*%
X111420000Y-44000000D03*
D17*
%TO.P,J2,2,Pin_2*%
%TO.N,GND*%
X113960000Y-44000000D03*
%TO.P,J2,3,Pin_3*%
%TO.N,Net-(J2-Pin_3)*%
X116500000Y-44000000D03*
%TO.P,J2,4,Pin_4*%
%TO.N,Net-(J2-Pin_4)*%
X119040000Y-44000000D03*
%TD*%
D23*
%TO.P,U4,1,VSUP*%
%TO.N,5V*%
X105525000Y-62555000D03*
%TO.P,U4,2,BASE*%
%TO.N,Net-(Q1-B)*%
X105525000Y-63825000D03*
%TO.P,U4,3,AVDD*%
%TO.N,Net-(Q1-C)*%
X105525000Y-65095000D03*
%TO.P,U4,4,VFB*%
%TO.N,Net-(U4-VFB)*%
X105525000Y-66365000D03*
%TO.P,U4,5,AGND*%
%TO.N,GND*%
X105525000Y-67635000D03*
%TO.P,U4,6,VBG*%
%TO.N,Net-(U4-VBG)*%
X105525000Y-68905000D03*
%TO.P,U4,7,INA-*%
%TO.N,Net-(U4-INA-)*%
X105525000Y-70175000D03*
%TO.P,U4,8,INA+*%
%TO.N,Net-(U4-INA+)*%
X105525000Y-71445000D03*
%TO.P,U4,9,INB-*%
%TO.N,Net-(U4-INB-)*%
X110475000Y-71445000D03*
%TO.P,U4,10,INB+*%
%TO.N,Net-(U4-INB+)*%
X110475000Y-70175000D03*
%TO.P,U4,11,PD_SCK*%
%TO.N,SCK*%
X110475000Y-68905000D03*
%TO.P,U4,12,DOUT*%
%TO.N,DOUT*%
X110475000Y-67635000D03*
%TO.P,U4,13,XO*%
%TO.N,unconnected-(U4-XO-Pad13)*%
X110475000Y-66365000D03*
%TO.P,U4,14,XI*%
%TO.N,GND*%
X110475000Y-65095000D03*
%TO.P,U4,15,RATE*%
X110475000Y-63825000D03*
%TO.P,U4,16,DVDD*%
%TO.N,3.3V*%
X110475000Y-62555000D03*
%TD*%
D20*
%TO.P,C5,1*%
%TO.N,Net-(U4-INB-)*%
X115987500Y-72000000D03*
%TO.P,C5,2*%
%TO.N,Net-(U4-INB+)*%
X118062500Y-72000000D03*
%TD*%
%TO.P,C3,1*%
%TO.N,Net-(J1-Pin_1)*%
X85425000Y-55000000D03*
%TO.P,C3,2*%
%TO.N,GND*%
X87500000Y-55000000D03*
%TD*%
D21*
%TO.P,R7,1*%
%TO.N,Net-(J2-Pin_4)*%
X121000000Y-63500000D03*
%TO.P,R7,2*%
%TO.N,Net-(U4-INB+)*%
X119000000Y-63500000D03*
%TD*%
D15*
%TO.P,R1,1*%
%TO.N,Net-(J1-Pin_1)*%
X100250000Y-46850000D03*
%TO.P,R1,2*%
%TO.N,Net-(Q1-C)*%
X102250000Y-46850000D03*
%TD*%
D24*
%TO.P,C4,1*%
%TO.N,Net-(U4-INA-)*%
X101537500Y-69500000D03*
%TO.P,C4,2*%
%TO.N,Net-(U4-INA+)*%
X99462500Y-69500000D03*
%TD*%
D25*
%TO.N,3.3V*%
X111250000Y-80250000D03*
X112500000Y-70250000D03*
%TO.N,GND*%
X99760000Y-86170000D03*
X98760000Y-86170000D03*
X97760000Y-86170000D03*
X97760000Y-89170000D03*
X100760000Y-89170000D03*
X100760000Y-86170000D03*
X105760000Y-86170000D03*
X105760000Y-89170000D03*
X107760000Y-89170000D03*
X109760000Y-86170000D03*
X109760000Y-89170000D03*
X107760000Y-86170000D03*
%TO.N,5V*%
X110800000Y-52400000D03*
X125000000Y-58425000D03*
%TO.N,GND*%
X94000000Y-57500000D03*
X108630781Y-63630781D03*
X100250000Y-54080000D03*
X89500000Y-55000000D03*
X108000000Y-65000000D03*
X97012500Y-76175000D03*
X107500000Y-67500000D03*
%TD*%
D26*
%TO.N,3.3V*%
X110750000Y-80750000D02*
X110750000Y-84250000D01*
X111250000Y-80250000D02*
X110750000Y-80750000D01*
X112500000Y-66500000D02*
X112500000Y-70250000D01*
%TO.N,SCK*%
X93750000Y-83050000D02*
X93750000Y-84250000D01*
X95075000Y-81725000D02*
X93750000Y-83050000D01*
X101975000Y-81725000D02*
X95075000Y-81725000D01*
X101975000Y-81725000D02*
X108650000Y-75050000D01*
%TO.N,DOUT*%
X92750000Y-83050000D02*
X92750000Y-84250000D01*
X94550000Y-81250000D02*
X92750000Y-83050000D01*
X100850000Y-81250000D02*
X94550000Y-81250000D01*
%TO.N,5V_local*%
X113500000Y-80000000D02*
X111750000Y-81750000D01*
X122300000Y-80000000D02*
X113500000Y-80000000D01*
X129150000Y-73150000D02*
X122300000Y-80000000D01*
X129150000Y-66800000D02*
X129150000Y-73150000D01*
X111750000Y-81750000D02*
X111750000Y-84250000D01*
%TO.N,VBUS*%
X108750000Y-81250000D02*
X108750000Y-84250000D01*
X112000000Y-78000000D02*
X108750000Y-81250000D01*
X122250000Y-78000000D02*
X112000000Y-78000000D01*
X125000000Y-75250000D02*
X122250000Y-78000000D01*
%TO.N,5V_local*%
X110500000Y-95250000D02*
X111750000Y-94000000D01*
X89880000Y-95250000D02*
X110500000Y-95250000D01*
X87130000Y-92500000D02*
X89880000Y-95250000D01*
%TO.N,GND*%
X104735000Y-85145000D02*
X105760000Y-86170000D01*
X105760000Y-84120000D02*
X104735000Y-85145000D01*
X99760000Y-86170000D02*
X99760000Y-84260000D01*
X99760000Y-84260000D02*
X99750000Y-84250000D01*
X98750000Y-84250000D02*
X98750000Y-86160000D01*
X98750000Y-86160000D02*
X98760000Y-86170000D01*
X97760000Y-84120000D02*
X97760000Y-86170000D01*
X97750000Y-91450000D02*
X97750000Y-89180000D01*
X97750000Y-89180000D02*
X97760000Y-89170000D01*
X100750000Y-91450000D02*
X100750000Y-89180000D01*
X100750000Y-89180000D02*
X100760000Y-89170000D01*
X100760000Y-84120000D02*
X100760000Y-86170000D01*
X105760000Y-89170000D02*
X105750000Y-89180000D01*
X105750000Y-89180000D02*
X105750000Y-91450000D01*
X107750000Y-89180000D02*
X107750000Y-91450000D01*
X107760000Y-89170000D02*
X107750000Y-89180000D01*
X109760000Y-86170000D02*
X109760000Y-84260000D01*
X109760000Y-84260000D02*
X109750000Y-84250000D01*
X109750000Y-89180000D02*
X109750000Y-91450000D01*
X109760000Y-89170000D02*
X109750000Y-89180000D01*
X107760000Y-86170000D02*
X107760000Y-84260000D01*
X107760000Y-84260000D02*
X107750000Y-84250000D01*
%TO.N,5V*%
X103901000Y-60099000D02*
X103901000Y-62151000D01*
X107212500Y-56787500D02*
X103901000Y-60099000D01*
X104305000Y-62555000D02*
X105525000Y-62555000D01*
X110800000Y-56787500D02*
X107212500Y-56787500D01*
X103901000Y-62151000D02*
X104305000Y-62555000D01*
%TO.N,Net-(U4-INB-)*%
X113750000Y-72500000D02*
X112695000Y-71445000D01*
X112695000Y-71445000D02*
X110475000Y-71445000D01*
X115050000Y-72500000D02*
X113750000Y-72500000D01*
X115550000Y-72000000D02*
X115050000Y-72500000D01*
X114500000Y-70950000D02*
X115550000Y-72000000D01*
X114500000Y-63500000D02*
X114500000Y-70950000D01*
%TO.N,Net-(U4-VBG)*%
X105525000Y-68905000D02*
X106905000Y-68905000D01*
X99087500Y-74175000D02*
X104411968Y-74175000D01*
X106905000Y-68905000D02*
X107447000Y-69447000D01*
X107447000Y-69447000D02*
X107447000Y-71139968D01*
X107447000Y-71139968D02*
X104586968Y-74000000D01*
X104411968Y-74175000D02*
X104586968Y-74000000D01*
%TO.N,Net-(J1-Pin_1)*%
X85425000Y-55000000D02*
X85425000Y-56425000D01*
X100250000Y-46850000D02*
X100250000Y-43050000D01*
X88989000Y-52064000D02*
X91925000Y-55000000D01*
X88989000Y-41936000D02*
X88989000Y-52064000D01*
X100250000Y-43050000D02*
X98200000Y-41000000D01*
X90000000Y-58000000D02*
X91925000Y-56075000D01*
X91925000Y-56075000D02*
X91925000Y-55000000D01*
X87000000Y-58000000D02*
X90000000Y-58000000D01*
X89925000Y-41000000D02*
X88989000Y-41936000D01*
X85425000Y-55000000D02*
X85425000Y-46292500D01*
X85425000Y-56425000D02*
X87000000Y-58000000D01*
X98200000Y-41000000D02*
X89925000Y-41000000D01*
X85425000Y-46292500D02*
X87750000Y-43967500D01*
%TO.N,Net-(U4-INA+)*%
X99575000Y-65545000D02*
X99575000Y-68950000D01*
X100970000Y-71445000D02*
X99025000Y-69500000D01*
X99575000Y-68950000D02*
X99025000Y-69500000D01*
X105525000Y-71445000D02*
X100970000Y-71445000D01*
%TO.N,Net-(U4-INA-)*%
X105525000Y-70175000D02*
X103675000Y-70175000D01*
X103500000Y-70000000D02*
X103500000Y-69025000D01*
X101537500Y-69500000D02*
X103025000Y-69500000D01*
X102500000Y-66260000D02*
X102500000Y-65520000D01*
X102500000Y-67000000D02*
X102500000Y-66260000D01*
X103675000Y-70175000D02*
X103500000Y-70000000D01*
X103500000Y-68000000D02*
X102500000Y-67000000D01*
X103025000Y-69500000D02*
X103500000Y-69025000D01*
X103500000Y-69025000D02*
X103500000Y-68000000D01*
X99575000Y-62595000D02*
X102500000Y-65520000D01*
%TO.N,Net-(U4-INB+)*%
X118062500Y-72000000D02*
X118062500Y-68700000D01*
X109051000Y-72551000D02*
X111500000Y-75000000D01*
X109051000Y-70349000D02*
X109051000Y-72551000D01*
X117000000Y-75000000D02*
X118062500Y-73937500D01*
X110475000Y-70175000D02*
X109225000Y-70175000D01*
X109225000Y-70175000D02*
X109051000Y-70349000D01*
X111500000Y-75000000D02*
X117000000Y-75000000D01*
X118062500Y-73937500D02*
X118062500Y-72000000D01*
X119000000Y-63500000D02*
X119000000Y-67762500D01*
X119000000Y-67762500D02*
X118062500Y-68700000D01*
%TO.N,Net-(J1-Pin_3)*%
X95850000Y-57700000D02*
X95850000Y-50500000D01*
X92830000Y-47480000D02*
X92830000Y-43967500D01*
X95850000Y-50500000D02*
X92830000Y-47480000D01*
X97575000Y-62595000D02*
X97575000Y-59425000D01*
X97575000Y-59425000D02*
X95850000Y-57700000D01*
%TO.N,Net-(J1-Pin_4)*%
X98476000Y-64644000D02*
X98476000Y-49726000D01*
X95350000Y-46600000D02*
X95370000Y-46580000D01*
X97575000Y-65545000D02*
X98476000Y-64644000D01*
X95370000Y-46580000D02*
X95370000Y-43967500D01*
X98476000Y-49726000D02*
X95350000Y-46600000D01*
%TO.N,Net-(J2-Pin_3)*%
X116500000Y-63500000D02*
X116500000Y-44000000D01*
%TO.N,Net-(J2-Pin_4)*%
X121000000Y-63500000D02*
X121000000Y-51950000D01*
X121000000Y-51950000D02*
X119040000Y-49990000D01*
X119040000Y-49990000D02*
X119040000Y-44000000D01*
%TO.N,Net-(J3-Pin_1)*%
X78400000Y-65660000D02*
X87120000Y-65660000D01*
X87120000Y-65660000D02*
X87130000Y-65650000D01*
%TO.N,Net-(Q1-C)*%
X113275000Y-60900000D02*
X113925000Y-60250000D01*
X109850000Y-60900000D02*
X113275000Y-60900000D01*
X109125000Y-49650000D02*
X103500000Y-55275000D01*
X113925000Y-60250000D02*
X113925000Y-55525000D01*
X108000000Y-64000000D02*
X108000000Y-62750000D01*
X112912500Y-54512500D02*
X113925000Y-55525000D01*
X111750000Y-52400000D02*
X111750000Y-51275000D01*
X106905000Y-65095000D02*
X108000000Y-64000000D01*
X109125000Y-49650000D02*
X110125000Y-49650000D01*
X103500000Y-64595000D02*
X104000000Y-65095000D01*
X111750000Y-54512500D02*
X112912500Y-54512500D01*
X108000000Y-62750000D02*
X109850000Y-60900000D01*
X107900000Y-49650000D02*
X109125000Y-49650000D01*
X102250000Y-49650000D02*
X107900000Y-49650000D01*
X111750000Y-51275000D02*
X110125000Y-49650000D01*
X105525000Y-65095000D02*
X106905000Y-65095000D01*
X105100000Y-46850000D02*
X107900000Y-49650000D01*
X104000000Y-65095000D02*
X105525000Y-65095000D01*
X111750000Y-54512500D02*
X111750000Y-52400000D01*
X103500000Y-55275000D02*
X103500000Y-64595000D01*
X102250000Y-46850000D02*
X105100000Y-46850000D01*
%TO.N,Net-(Q1-B)*%
X107500000Y-61687501D02*
X109662501Y-59525000D01*
X107020932Y-63825000D02*
X107500000Y-63345932D01*
X112075000Y-59525000D02*
X112700000Y-58900000D01*
X109662501Y-59525000D02*
X112075000Y-59525000D01*
X107500000Y-63345932D02*
X107500000Y-61687501D01*
X112700000Y-58900000D02*
X112700000Y-56787500D01*
X105525000Y-63825000D02*
X107020932Y-63825000D01*
%TO.N,5V_local*%
X111750000Y-91450000D02*
X111750000Y-94000000D01*
X111750000Y-84250000D02*
X111750000Y-91450000D01*
X87130000Y-70730000D02*
X87130000Y-92500000D01*
%TO.N,Net-(U4-VFB)*%
X100250000Y-50850000D02*
X100250000Y-49650000D01*
X101950000Y-51050000D02*
X100450000Y-51050000D01*
X105525000Y-66365000D02*
X103365000Y-66365000D01*
X103000000Y-66000000D02*
X103000000Y-64814999D01*
X103000000Y-64814999D02*
X102250000Y-64064999D01*
X100450000Y-51050000D02*
X100250000Y-50850000D01*
X103365000Y-66365000D02*
X103000000Y-66000000D01*
X102250000Y-52450000D02*
X102250000Y-51350000D01*
X102250000Y-51350000D02*
X101950000Y-51050000D01*
X102250000Y-64064999D02*
X102250000Y-52450000D01*
%TO.N,DOUT*%
X108635000Y-68000000D02*
X108635000Y-68500001D01*
X100850000Y-81250000D02*
X108250000Y-73850000D01*
X108249000Y-68886001D02*
X108249000Y-72249000D01*
X108635000Y-68000000D02*
X109000000Y-67635000D01*
X110475000Y-67635000D02*
X109000000Y-67635000D01*
X108635000Y-68500001D02*
X108249000Y-68886001D01*
X108250000Y-73850000D02*
X108250000Y-72250000D01*
%TO.N,SCK*%
X108650000Y-75050000D02*
X108650000Y-69052101D01*
X108650000Y-69052101D02*
X108797101Y-68905000D01*
X108797101Y-68905000D02*
X110475000Y-68905000D01*
%TO.N,3.3V*%
X112500000Y-63000000D02*
X112500000Y-66500000D01*
X110750000Y-84250000D02*
X110750000Y-91450000D01*
X110475000Y-62555000D02*
X112055000Y-62555000D01*
X112055000Y-62555000D02*
X112500000Y-63000000D01*
%TO.N,5V*%
X125000000Y-59725000D02*
X125000000Y-59250000D01*
X126950000Y-62400000D02*
X126950000Y-61200000D01*
X129150000Y-62700000D02*
X127250000Y-62700000D01*
X125000000Y-59250000D02*
X125000000Y-58425000D01*
X110800000Y-52400000D02*
X110800000Y-56787500D01*
X126950000Y-61200000D02*
X125000000Y-59250000D01*
X125000000Y-62600000D02*
X125000000Y-59725000D01*
X127250000Y-62700000D02*
X126950000Y-62400000D01*
%TO.N,VBUS*%
X125000000Y-75250000D02*
X125000000Y-66700000D01*
X108750000Y-91450000D02*
X108750000Y-84250000D01*
%TO.N,GND*%
X87500000Y-55000000D02*
X89500000Y-55000000D01*
X105525000Y-67525000D02*
X105525000Y-67635000D01*
X105550000Y-67500000D02*
X105525000Y-67525000D01*
X97012500Y-76175000D02*
X97012500Y-74175000D01*
X110475000Y-65095000D02*
X108095000Y-65095000D01*
X108825000Y-63825000D02*
X108630781Y-63630781D01*
X108095000Y-65095000D02*
X108000000Y-65000000D01*
X105525000Y-67635000D02*
X107365000Y-67635000D01*
X100250000Y-54080000D02*
X100250000Y-52450000D01*
X107365000Y-67635000D02*
X107500000Y-67500000D01*
X94000000Y-57500000D02*
X94000000Y-55000000D01*
X110475000Y-63825000D02*
X108825000Y-63825000D01*
%TD*%
M02*
