%TF.GenerationSoftware,KiCad,Pcbnew,9.0.2*%
%TF.CreationDate,2026-06-09T13:40:55+02:00*%
%TF.ProjectId,Poub,506f7562-2e6b-4696-9361-645f70636258,rev?*%
%TF.SameCoordinates,Original*%
%TF.FileFunction,Legend,Top*%
%TF.FilePolarity,Positive*%
%FSLAX46Y46*%
G04 Gerber Fmt 4.6, Leading zero omitted, Abs format (unit mm)*
G04 Created by KiCad (PCBNEW 9.0.2) date 2026-06-09 13:40:55*
%MOMM*%
%LPD*%
G01*
G04 APERTURE LIST*
%ADD10C,0.100000*%
%ADD11C,0.150000*%
%ADD12C,0.200000*%
%ADD13C,0.120000*%
G04 APERTURE END LIST*
D10*
X78053884Y-62766466D02*
X78815789Y-62766466D01*
X78434836Y-63147419D02*
X78434836Y-62385514D01*
X78366466Y-71496115D02*
X78366466Y-70734211D01*
D11*
X88798095Y-48894700D02*
X88940952Y-48942319D01*
X88940952Y-48942319D02*
X89179047Y-48942319D01*
X89179047Y-48942319D02*
X89274285Y-48894700D01*
X89274285Y-48894700D02*
X89321904Y-48847080D01*
X89321904Y-48847080D02*
X89369523Y-48751842D01*
X89369523Y-48751842D02*
X89369523Y-48656604D01*
X89369523Y-48656604D02*
X89321904Y-48561366D01*
X89321904Y-48561366D02*
X89274285Y-48513747D01*
X89274285Y-48513747D02*
X89179047Y-48466128D01*
X89179047Y-48466128D02*
X88988571Y-48418509D01*
X88988571Y-48418509D02*
X88893333Y-48370890D01*
X88893333Y-48370890D02*
X88845714Y-48323271D01*
X88845714Y-48323271D02*
X88798095Y-48228033D01*
X88798095Y-48228033D02*
X88798095Y-48132795D01*
X88798095Y-48132795D02*
X88845714Y-48037557D01*
X88845714Y-48037557D02*
X88893333Y-47989938D01*
X88893333Y-47989938D02*
X88988571Y-47942319D01*
X88988571Y-47942319D02*
X89226666Y-47942319D01*
X89226666Y-47942319D02*
X89369523Y-47989938D01*
X90179047Y-48894700D02*
X90083809Y-48942319D01*
X90083809Y-48942319D02*
X89893333Y-48942319D01*
X89893333Y-48942319D02*
X89798095Y-48894700D01*
X89798095Y-48894700D02*
X89750476Y-48799461D01*
X89750476Y-48799461D02*
X89750476Y-48418509D01*
X89750476Y-48418509D02*
X89798095Y-48323271D01*
X89798095Y-48323271D02*
X89893333Y-48275652D01*
X89893333Y-48275652D02*
X90083809Y-48275652D01*
X90083809Y-48275652D02*
X90179047Y-48323271D01*
X90179047Y-48323271D02*
X90226666Y-48418509D01*
X90226666Y-48418509D02*
X90226666Y-48513747D01*
X90226666Y-48513747D02*
X89750476Y-48608985D01*
X90655238Y-48275652D02*
X90655238Y-48942319D01*
X90655238Y-48370890D02*
X90702857Y-48323271D01*
X90702857Y-48323271D02*
X90798095Y-48275652D01*
X90798095Y-48275652D02*
X90940952Y-48275652D01*
X90940952Y-48275652D02*
X91036190Y-48323271D01*
X91036190Y-48323271D02*
X91083809Y-48418509D01*
X91083809Y-48418509D02*
X91083809Y-48942319D01*
X91512381Y-48894700D02*
X91607619Y-48942319D01*
X91607619Y-48942319D02*
X91798095Y-48942319D01*
X91798095Y-48942319D02*
X91893333Y-48894700D01*
X91893333Y-48894700D02*
X91940952Y-48799461D01*
X91940952Y-48799461D02*
X91940952Y-48751842D01*
X91940952Y-48751842D02*
X91893333Y-48656604D01*
X91893333Y-48656604D02*
X91798095Y-48608985D01*
X91798095Y-48608985D02*
X91655238Y-48608985D01*
X91655238Y-48608985D02*
X91560000Y-48561366D01*
X91560000Y-48561366D02*
X91512381Y-48466128D01*
X91512381Y-48466128D02*
X91512381Y-48418509D01*
X91512381Y-48418509D02*
X91560000Y-48323271D01*
X91560000Y-48323271D02*
X91655238Y-48275652D01*
X91655238Y-48275652D02*
X91798095Y-48275652D01*
X91798095Y-48275652D02*
X91893333Y-48323271D01*
X92512381Y-48942319D02*
X92417143Y-48894700D01*
X92417143Y-48894700D02*
X92369524Y-48847080D01*
X92369524Y-48847080D02*
X92321905Y-48751842D01*
X92321905Y-48751842D02*
X92321905Y-48466128D01*
X92321905Y-48466128D02*
X92369524Y-48370890D01*
X92369524Y-48370890D02*
X92417143Y-48323271D01*
X92417143Y-48323271D02*
X92512381Y-48275652D01*
X92512381Y-48275652D02*
X92655238Y-48275652D01*
X92655238Y-48275652D02*
X92750476Y-48323271D01*
X92750476Y-48323271D02*
X92798095Y-48370890D01*
X92798095Y-48370890D02*
X92845714Y-48466128D01*
X92845714Y-48466128D02*
X92845714Y-48751842D01*
X92845714Y-48751842D02*
X92798095Y-48847080D01*
X92798095Y-48847080D02*
X92750476Y-48894700D01*
X92750476Y-48894700D02*
X92655238Y-48942319D01*
X92655238Y-48942319D02*
X92512381Y-48942319D01*
X93274286Y-48942319D02*
X93274286Y-48275652D01*
X93274286Y-48466128D02*
X93321905Y-48370890D01*
X93321905Y-48370890D02*
X93369524Y-48323271D01*
X93369524Y-48323271D02*
X93464762Y-48275652D01*
X93464762Y-48275652D02*
X93560000Y-48275652D01*
X93845715Y-48656604D02*
X94321905Y-48656604D01*
X93750477Y-48942319D02*
X94083810Y-47942319D01*
X94083810Y-47942319D02*
X94417143Y-48942319D01*
X112396666Y-48927200D02*
X112539523Y-48974819D01*
X112539523Y-48974819D02*
X112777618Y-48974819D01*
X112777618Y-48974819D02*
X112872856Y-48927200D01*
X112872856Y-48927200D02*
X112920475Y-48879580D01*
X112920475Y-48879580D02*
X112968094Y-48784342D01*
X112968094Y-48784342D02*
X112968094Y-48689104D01*
X112968094Y-48689104D02*
X112920475Y-48593866D01*
X112920475Y-48593866D02*
X112872856Y-48546247D01*
X112872856Y-48546247D02*
X112777618Y-48498628D01*
X112777618Y-48498628D02*
X112587142Y-48451009D01*
X112587142Y-48451009D02*
X112491904Y-48403390D01*
X112491904Y-48403390D02*
X112444285Y-48355771D01*
X112444285Y-48355771D02*
X112396666Y-48260533D01*
X112396666Y-48260533D02*
X112396666Y-48165295D01*
X112396666Y-48165295D02*
X112444285Y-48070057D01*
X112444285Y-48070057D02*
X112491904Y-48022438D01*
X112491904Y-48022438D02*
X112587142Y-47974819D01*
X112587142Y-47974819D02*
X112825237Y-47974819D01*
X112825237Y-47974819D02*
X112968094Y-48022438D01*
X113777618Y-48927200D02*
X113682380Y-48974819D01*
X113682380Y-48974819D02*
X113491904Y-48974819D01*
X113491904Y-48974819D02*
X113396666Y-48927200D01*
X113396666Y-48927200D02*
X113349047Y-48831961D01*
X113349047Y-48831961D02*
X113349047Y-48451009D01*
X113349047Y-48451009D02*
X113396666Y-48355771D01*
X113396666Y-48355771D02*
X113491904Y-48308152D01*
X113491904Y-48308152D02*
X113682380Y-48308152D01*
X113682380Y-48308152D02*
X113777618Y-48355771D01*
X113777618Y-48355771D02*
X113825237Y-48451009D01*
X113825237Y-48451009D02*
X113825237Y-48546247D01*
X113825237Y-48546247D02*
X113349047Y-48641485D01*
X114253809Y-48308152D02*
X114253809Y-48974819D01*
X114253809Y-48403390D02*
X114301428Y-48355771D01*
X114301428Y-48355771D02*
X114396666Y-48308152D01*
X114396666Y-48308152D02*
X114539523Y-48308152D01*
X114539523Y-48308152D02*
X114634761Y-48355771D01*
X114634761Y-48355771D02*
X114682380Y-48451009D01*
X114682380Y-48451009D02*
X114682380Y-48974819D01*
X115110952Y-48927200D02*
X115206190Y-48974819D01*
X115206190Y-48974819D02*
X115396666Y-48974819D01*
X115396666Y-48974819D02*
X115491904Y-48927200D01*
X115491904Y-48927200D02*
X115539523Y-48831961D01*
X115539523Y-48831961D02*
X115539523Y-48784342D01*
X115539523Y-48784342D02*
X115491904Y-48689104D01*
X115491904Y-48689104D02*
X115396666Y-48641485D01*
X115396666Y-48641485D02*
X115253809Y-48641485D01*
X115253809Y-48641485D02*
X115158571Y-48593866D01*
X115158571Y-48593866D02*
X115110952Y-48498628D01*
X115110952Y-48498628D02*
X115110952Y-48451009D01*
X115110952Y-48451009D02*
X115158571Y-48355771D01*
X115158571Y-48355771D02*
X115253809Y-48308152D01*
X115253809Y-48308152D02*
X115396666Y-48308152D01*
X115396666Y-48308152D02*
X115491904Y-48355771D01*
X116110952Y-48974819D02*
X116015714Y-48927200D01*
X116015714Y-48927200D02*
X115968095Y-48879580D01*
X115968095Y-48879580D02*
X115920476Y-48784342D01*
X115920476Y-48784342D02*
X115920476Y-48498628D01*
X115920476Y-48498628D02*
X115968095Y-48403390D01*
X115968095Y-48403390D02*
X116015714Y-48355771D01*
X116015714Y-48355771D02*
X116110952Y-48308152D01*
X116110952Y-48308152D02*
X116253809Y-48308152D01*
X116253809Y-48308152D02*
X116349047Y-48355771D01*
X116349047Y-48355771D02*
X116396666Y-48403390D01*
X116396666Y-48403390D02*
X116444285Y-48498628D01*
X116444285Y-48498628D02*
X116444285Y-48784342D01*
X116444285Y-48784342D02*
X116396666Y-48879580D01*
X116396666Y-48879580D02*
X116349047Y-48927200D01*
X116349047Y-48927200D02*
X116253809Y-48974819D01*
X116253809Y-48974819D02*
X116110952Y-48974819D01*
X116872857Y-48974819D02*
X116872857Y-48308152D01*
X116872857Y-48498628D02*
X116920476Y-48403390D01*
X116920476Y-48403390D02*
X116968095Y-48355771D01*
X116968095Y-48355771D02*
X117063333Y-48308152D01*
X117063333Y-48308152D02*
X117158571Y-48308152D01*
X117825238Y-48451009D02*
X117968095Y-48498628D01*
X117968095Y-48498628D02*
X118015714Y-48546247D01*
X118015714Y-48546247D02*
X118063333Y-48641485D01*
X118063333Y-48641485D02*
X118063333Y-48784342D01*
X118063333Y-48784342D02*
X118015714Y-48879580D01*
X118015714Y-48879580D02*
X117968095Y-48927200D01*
X117968095Y-48927200D02*
X117872857Y-48974819D01*
X117872857Y-48974819D02*
X117491905Y-48974819D01*
X117491905Y-48974819D02*
X117491905Y-47974819D01*
X117491905Y-47974819D02*
X117825238Y-47974819D01*
X117825238Y-47974819D02*
X117920476Y-48022438D01*
X117920476Y-48022438D02*
X117968095Y-48070057D01*
X117968095Y-48070057D02*
X118015714Y-48165295D01*
X118015714Y-48165295D02*
X118015714Y-48260533D01*
X118015714Y-48260533D02*
X117968095Y-48355771D01*
X117968095Y-48355771D02*
X117920476Y-48403390D01*
X117920476Y-48403390D02*
X117825238Y-48451009D01*
X117825238Y-48451009D02*
X117491905Y-48451009D01*
D10*
%TO.C,J4*%
X92750000Y-82850000D02*
G75*
G02*
X92750000Y-82750000I0J50000D01*
G01*
X92750000Y-82750000D02*
G75*
G02*
X92750000Y-82850000I0J-50000D01*
G01*
D12*
X114750000Y-92950000D02*
X114750000Y-90550000D01*
X114750000Y-84150000D02*
X114750000Y-85050000D01*
X112450000Y-84150000D02*
X114750000Y-84150000D01*
X103450000Y-84150000D02*
X105050000Y-84150000D01*
D10*
X92750000Y-82850000D02*
X92750000Y-82850000D01*
X92750000Y-82750000D02*
X92750000Y-82750000D01*
D12*
X89750000Y-92950000D02*
X114750000Y-92950000D01*
X89750000Y-90750000D02*
X89750000Y-92950000D01*
X89750000Y-84850000D02*
X89750000Y-84150000D01*
X89750000Y-84150000D02*
X92050000Y-84150000D01*
D13*
%TO.C,U1*%
X84395000Y-61840000D02*
X93165000Y-61840000D01*
X84395000Y-65354000D02*
X84395000Y-61840000D01*
X84395000Y-74560000D02*
X84395000Y-65946000D01*
X93165000Y-61840000D02*
X93165000Y-74560000D01*
X93165000Y-74560000D02*
X84395000Y-74560000D01*
X84395000Y-65650000D02*
X83925000Y-65990000D01*
X83925000Y-65310000D01*
X84395000Y-65650000D01*
G36*
X84395000Y-65650000D02*
G01*
X83925000Y-65990000D01*
X83925000Y-65310000D01*
X84395000Y-65650000D01*
G37*
%TO.C,Q1*%
X110190000Y-54740000D02*
X111190000Y-54740000D01*
X110190000Y-56560000D02*
X110190000Y-54740000D01*
X110240000Y-56560000D02*
X110190000Y-56560000D01*
X112140000Y-56560000D02*
X111360000Y-56560000D01*
X112310000Y-54740000D02*
X113310000Y-54740000D01*
X113310000Y-54740000D02*
X113310000Y-56560000D01*
X113310000Y-56560000D02*
X113260000Y-56560000D01*
X111700000Y-57340000D02*
X111370000Y-57100000D01*
X111700000Y-56860000D01*
X111700000Y-57340000D01*
G36*
X111700000Y-57340000D02*
G01*
X111370000Y-57100000D01*
X111700000Y-56860000D01*
X111700000Y-57340000D01*
G37*
%TO.C,R5*%
X98347936Y-64810000D02*
X98802064Y-64810000D01*
X98347936Y-66280000D02*
X98802064Y-66280000D01*
%TO.C,J1*%
X86110000Y-40747500D02*
X97010000Y-40747500D01*
X86110000Y-42467500D02*
X97010000Y-42467500D01*
X86110000Y-45567500D02*
X97010000Y-45567500D01*
X86110000Y-46567500D02*
X97010000Y-46567500D01*
X86110000Y-47487500D02*
X86110000Y-40747500D01*
X87450000Y-47487500D02*
X86110000Y-47487500D01*
X97010000Y-40747500D02*
X97010000Y-47487500D01*
X97010000Y-47487500D02*
X88050000Y-47487500D01*
X88190000Y-48097500D02*
X87310000Y-48097500D01*
X87750000Y-47487500D01*
X88190000Y-48097500D01*
G36*
X88190000Y-48097500D02*
G01*
X87310000Y-48097500D01*
X87750000Y-47487500D01*
X88190000Y-48097500D01*
G37*
%TO.C,R2*%
X101022936Y-48915000D02*
X101477064Y-48915000D01*
X101022936Y-50385000D02*
X101477064Y-50385000D01*
D12*
%TO.C,D1*%
X127908000Y-62248000D02*
X127908000Y-67252000D01*
X130392000Y-67252000D02*
X130392000Y-61900000D01*
D13*
%TO.C,C2*%
X92701248Y-54265000D02*
X93223752Y-54265000D01*
X92701248Y-55735000D02*
X93223752Y-55735000D01*
%TO.C,R6*%
X115727064Y-62765000D02*
X115272936Y-62765000D01*
X115727064Y-64235000D02*
X115272936Y-64235000D01*
%TO.C,J3*%
X74880000Y-64020000D02*
X81620000Y-64020000D01*
X74880000Y-65360000D02*
X74880000Y-64020000D01*
X74880000Y-69840000D02*
X74880000Y-65960000D01*
X75800000Y-64020000D02*
X75800000Y-69840000D01*
X76800000Y-64020000D02*
X76800000Y-69840000D01*
X79900000Y-64020000D02*
X79900000Y-69840000D01*
X81620000Y-64020000D02*
X81620000Y-69840000D01*
X81620000Y-69840000D02*
X74880000Y-69840000D01*
X74880000Y-65660000D02*
X74270000Y-66100000D01*
X74270000Y-65220000D01*
X74880000Y-65660000D01*
G36*
X74880000Y-65660000D02*
G01*
X74270000Y-66100000D01*
X74270000Y-65220000D01*
X74880000Y-65660000D01*
G37*
%TO.C,R4*%
X98347936Y-61860000D02*
X98802064Y-61860000D01*
X98347936Y-63330000D02*
X98802064Y-63330000D01*
%TO.C,R3*%
X101022936Y-51715000D02*
X101477064Y-51715000D01*
X101022936Y-53185000D02*
X101477064Y-53185000D01*
%TO.C,C1*%
X97788748Y-73440000D02*
X98311252Y-73440000D01*
X97788748Y-74910000D02*
X98311252Y-74910000D01*
D12*
%TO.C,D2*%
X123758000Y-62148000D02*
X123758000Y-67152000D01*
X126242000Y-67152000D02*
X126242000Y-61800000D01*
D13*
%TO.C,J2*%
X109780000Y-40780000D02*
X120680000Y-40780000D01*
X109780000Y-42500000D02*
X120680000Y-42500000D01*
X109780000Y-45600000D02*
X120680000Y-45600000D01*
X109780000Y-46600000D02*
X120680000Y-46600000D01*
X109780000Y-47520000D02*
X109780000Y-40780000D01*
X111120000Y-47520000D02*
X109780000Y-47520000D01*
X120680000Y-40780000D02*
X120680000Y-47520000D01*
X120680000Y-47520000D02*
X111720000Y-47520000D01*
X111860000Y-48130000D02*
X110980000Y-48130000D01*
X111420000Y-47520000D01*
X111860000Y-48130000D01*
G36*
X111860000Y-48130000D02*
G01*
X110980000Y-48130000D01*
X111420000Y-47520000D01*
X111860000Y-48130000D01*
G37*
%TO.C,U4*%
X105940000Y-61940000D02*
X110060000Y-61940000D01*
X105940000Y-61995000D02*
X105940000Y-61940000D01*
X105940000Y-72060000D02*
X105940000Y-72005000D01*
X110060000Y-61940000D02*
X110060000Y-61995000D01*
X110060000Y-72005000D02*
X110060000Y-72060000D01*
X110060000Y-72060000D02*
X105940000Y-72060000D01*
X105400000Y-61990000D02*
X105160000Y-61660000D01*
X105640000Y-61660000D01*
X105400000Y-61990000D01*
G36*
X105400000Y-61990000D02*
G01*
X105160000Y-61660000D01*
X105640000Y-61660000D01*
X105400000Y-61990000D01*
G37*
%TO.C,C5*%
X116763748Y-71265000D02*
X117286252Y-71265000D01*
X116763748Y-72735000D02*
X117286252Y-72735000D01*
%TO.C,C3*%
X86201248Y-54265000D02*
X86723752Y-54265000D01*
X86201248Y-55735000D02*
X86723752Y-55735000D01*
%TO.C,R7*%
X120227064Y-62765000D02*
X119772936Y-62765000D01*
X120227064Y-64235000D02*
X119772936Y-64235000D01*
%TO.C,R1*%
X101022936Y-46115000D02*
X101477064Y-46115000D01*
X101022936Y-47585000D02*
X101477064Y-47585000D01*
%TO.C,C4*%
X100761252Y-68765000D02*
X100238748Y-68765000D01*
X100761252Y-70235000D02*
X100238748Y-70235000D01*
%TD*%
M02*
